{"title":"Scary Movie 4 2006 DVDRip(Eesti Subtiitrid) FLY635","uid":8110323,"size":627736105,"categoryP":"video","categoryS":"movies","magnet":"?xt=urn:btih:64226ce7135599210ca59a4c48a815ae9abb1863&amp;dn=Scary+Movie+4+2006+DVDRip%28Eesti+Subtiitrid%29+FLY635&amp;tr=udp%3A%2F%2Ftracker.openbittorrent.com%3A80&amp;tr=udp%3A%2F%2Fopen.demonii.com%3A1337&amp;tr=udp%3A%2F%2Ftracker.coppersurfer.tk%3A6969&amp;tr=udp%3A%2F%2Fexodus.desync.com%3A6969","seeders":1,"leechers":0,"uploader":"FLY635","files":-1,"time":1360174987,"description":"Video\nID                                       : 0\nFormat                                   : MPEG-4 Visual\nFormat profile                           : Advanced Simple@L5\nFormat settings, BVOP                    : 2\nFormat settings, QPel                    : No\nFormat settings, GMC                     : No warppoints\nFormat settings, Matrix                  : Default (H.263)\nMuxing mode                              : Packed bitstream\nCodec ID                                 : XVID\nCodec ID/Hint                            : XviD\nDuration                                 : 1h 19mn\nBit rate                                 : 874 Kbps\nWidth                                    : 624 pixels\nHeight                                   : 352 pixels\nDisplay aspect ratio                     : 16:9\nOriginal display aspect ratio            : 16:9\nFrame rate                               : 25.000 fps\nColor space                              : YUV\nChroma subsampling                       : 4:2:0\nBit depth                                : 8 bits\nScan type                                : Progressive\nCompression mode                         : Lossy\nBits/(Pixel*Frame)                       : 0.159\nStream size                              : 500 MiB (84%)\nWriting library                          : XviD 63\n\nAudio\nID                                       : 1\nFormat                                   : MPEG Audio\nFormat version                           : Version 1\nFormat profile                           : Layer 3\nCodec ID                                 : 55\nCodec ID/Hint                            : MP3\nDuration                                 : 1h 19mn\nBit rate mode                            : Constant\nBit rate                                 : 160 Kbps\nChannel(s)                               : 2 channels\nSampling rate                            : 44.1 KHz\nCompression mode                         : Lossy\nDelay relative to video                  : 40ms\nStream size                              : 91.5 MiB (15%)\nAlignment                                : Aligned on interleaves\nInterleave, duration                     : 26 ms (0.65 video frame)\nInterleave, preload duration             : 522 ms\nWriting library                          : LAME3.98.4\nAudio                                    : English\nSubtitle                                 : Estonia (.SRT)\n\n &lt;a href=&quot;\nhttp://bayimg.com/LaJIMAaEf&quot; rel=&quot;nofollow&quot; target=&quot;_NEW&quot;&gt;\nhttp://bayimg.com/LaJIMAaEf&lt;/a&gt;","torrent":{"xt":"urn:btih:64226ce7135599210ca59a4c48a815ae9abb1863","amp;dn":"Scary+Movie+4+2006+DVDRip%28Eesti+Subtiitrid%29+FLY635","amp;tr":["udp%3A%2F%2Ftracker.openbittorrent.com%3A80","udp%3A%2F%2Fopen.demonii.com%3A1337","udp%3A%2F%2Ftracker.coppersurfer.tk%3A6969","udp%3A%2F%2Fexodus.desync.com%3A6969"],"infoHash":"64226ce7135599210ca59a4c48a815ae9abb1863","infoHashBuffer":{"type":"Buffer","data":[100,34,108,231,19,85,153,33,12,165,154,76,72,168,21,174,154,187,24,99]},"announce":[],"urlList":[]}}